<?xml version="1.0" standalone="no"?>
<!DOCTYPE svg PUBLIC "-//W3C//DTD SVG 20010904//EN"
 "http://www.w3.org/TR/2001/REC-SVG-20010904/DTD/svg10.dtd">
<svg version="1.0" xmlns="http://www.w3.org/2000/svg"
 width="350.000000pt" height="350.000000pt" viewBox="0 0 350.000000 350.000000"
 preserveAspectRatio="xMidYMid meet">
<metadata>
Created by potrace 1.11, written by Peter Selinger 2001-2013
</metadata>
<g transform="translate(0.000000,350.000000) scale(0.100000,-0.100000)"
fill="#000000" stroke="none">
<path d="M1880 3158 c-154 -12 -266 -37 -385 -86 -460 -190 -791 -631 -861
-1147 -9 -63 -9 -305 -1 -365 4 -25 9 -65 12 -90 25 -191 157 -462 318 -655
58 -70 178 -188 223 -219 196 -137 301 -186 483 -227 261 -59 462 -41 851 76
112 34 185 32 244 -6 24 -15 47 -32 50 -38 4 -6 20 -11 35 -11 l28 0 -1 402
c-1 398 -1 403 -21 406 -18 2 -23 -6 -34 -50 -29 -114 -94 -297 -134 -373 -31
-58 -65 -104 -127 -166 -73 -74 -100 -93 -180 -132 -148 -70 -215 -82 -445
-81 -130 0 -176 5 -245 22 -219 56 -373 184 -472 392 -38 79 -93 248 -104 315
-3 22 -8 43 -10 46 -2 4 -6 31 -9 60 -4 30 -8 60 -11 67 -25 79 -25 782 1 907
3 11 7 38 10 60 30 214 118 441 218 565 164 202 389 292 692 277 308 -16 527
-153 658 -413 24 -48 85 -223 107 -310 10 -41 44 -66 52 -40 4 9 2 729 -1 748
-3 15 -48 3 -81 -22 -98 -75 -139 -73 -403 24 -164 60 -293 78 -457 64z"/>
</g>
</svg>
